<?xml version="1.0" standalone="no"?>
<!DOCTYPE svg PUBLIC "-//W3C//DTD SVG 20010904//EN"
 "http://www.w3.org/TR/2001/REC-SVG-20010904/DTD/svg10.dtd">
<svg version="1.0" xmlns="http://www.w3.org/2000/svg"
 width="640.000000pt" height="480.000000pt" viewBox="0 0 640.000000 480.000000"
 preserveAspectRatio="xMidYMid meet">
<metadata>
Created by potrace 1.11, written by Peter Selinger 2001-2013
</metadata>
<g transform="translate(0.000000,480.000000) scale(0.100000,-0.100000)"
fill="#000000" stroke="none">
<path d="M0 3645 c0 -806 3 -1155 11 -1155 6 0 7 -5 2 -12 -12 -19 -10 -58 2
-58 7 0 18 -12 26 -28 8 -15 18 -30 23 -34 6 -4 4 -13 -3 -22 -8 -9 -10 -16
-5 -16 5 -1 -6 -7 -23 -15 -25 -11 -33 -20 -33 -40 0 -25 23 -35 35 -15 4 6
10 8 15 5 5 -3 12 5 16 17 7 22 111 128 126 128 4 0 18 4 31 9 23 9 24 13 17
46 -7 30 -5 39 13 56 27 25 33 10 13 -29 -15 -29 -15 -30 14 -42 23 -10 33
-10 44 0 10 8 21 8 32 2 12 -7 28 -3 57 14 30 17 45 20 59 13 28 -15 58 10 58
48 0 37 14 48 52 44 20 -2 28 2 28 13 0 9 -7 16 -15 16 -8 0 -15 6 -15 14 0 9
16 17 43 21 100 15 103 16 82 32 -20 14 -69 10 -92 -9 -6 -5 -27 -8 -45 -6
-30 3 -33 6 -36 38 -2 29 3 41 28 63 36 33 39 57 7 57 -25 0 -57 -28 -57 -48
0 -7 -4 -12 -8 -12 -5 0 -23 -13 -40 -28 -31 -28 -44 -72 -21 -72 6 0 17 -6
24 -14 12 -11 10 -15 -11 -26 -15 -8 -28 -28 -34 -52 -6 -21 -17 -38 -24 -38
-8 0 -19 -7 -26 -15 -17 -21 -30 -19 -30 4 0 11 -4 22 -9 26 -5 3 -12 19 -16
36 -6 25 -10 29 -28 23 -12 -3 -29 -13 -38 -20 -8 -8 -26 -14 -38 -14 -20 0
-22 4 -16 33 5 25 4 29 -5 17 -10 -13 -11 -12 -6 3 3 10 6 25 6 32 0 7 16 21
37 30 20 10 81 62 136 117 98 97 102 100 148 102 37 1 45 4 37 14 -15 17 56
16 180 -3 124 -20 182 -36 182 -52 0 -10 -22 -13 -82 -14 -46 0 -76 -3 -68 -6
8 -4 23 -17 33 -30 18 -23 67 -32 67 -13 0 6 -5 10 -12 10 -6 0 -9 3 -5 6 3 4
20 2 36 -4 29 -10 56 1 29 11 -22 8 22 34 48 29 28 -5 30 0 8 33 -15 23 -15
25 0 25 9 0 19 -7 22 -15 8 -20 32 -19 83 6 25 12 50 17 59 13 10 -4 22 -6 27
-4 53 15 75 16 78 6 3 -8 8 -8 18 2 9 9 10 12 1 12 -7 0 -12 5 -12 10 0 6 11
8 26 4 17 -4 29 -2 35 7 7 11 9 11 9 -2 0 -11 15 -21 43 -28 23 -7 49 -15 57
-18 13 -5 13 -4 1 10 -7 10 -19 17 -25 17 -18 0 -56 43 -56 63 0 25 37 21 66
-8 20 -20 26 -22 30 -10 4 10 11 12 21 7 8 -5 27 -6 44 -4 24 3 27 7 18 18 -9
11 -6 14 15 14 16 0 26 5 26 15 0 12 13 15 59 15 39 0 61 4 64 13 3 9 7 9 18
0 8 -6 32 -15 54 -19 22 -4 59 -15 83 -25 34 -15 42 -23 38 -37 -6 -16 0 -19
42 -20 29 0 64 -9 86 -21 20 -12 47 -21 59 -21 21 0 96 -35 107 -49 9 -13 78
-41 98 -41 12 0 24 -4 27 -10 3 -5 13 -10 22 -10 28 0 190 -147 263 -239 14
-17 28 -31 32 -31 5 0 8 101 8 223 0 204 2 225 18 240 17 15 56 17 358 17 281
0 344 -3 368 -15 15 -8 30 -15 31 -15 8 0 -10 46 -22 58 -7 7 -13 22 -13 33 0
10 -4 19 -10 19 -5 0 -10 11 -10 25 0 14 -5 25 -10 25 -12 0 -8 91 4 125 26
67 79 165 91 165 7 0 26 6 42 14 46 23 97 36 139 36 55 0 155 -25 165 -41 6
-11 13 -11 26 -3 11 6 32 7 52 3 32 -7 67 3 82 24 3 5 9 -1 12 -13 5 -21 6
-21 37 -5 30 15 33 15 51 0 21 -20 49 -14 49 10 0 8 9 15 20 15 13 0 20 -7 20
-20 0 -14 -5 -18 -17 -13 -10 4 -1 -9 18 -28 20 -19 38 -41 42 -49 4 -12 6
-12 6 2 1 10 9 16 19 15 14 -1 17 -7 13 -31 -2 -17 -6 -25 -8 -18 -9 23 -23
12 -23 -18 0 -23 4 -30 16 -28 11 2 18 -5 19 -19 1 -16 -4 -23 -17 -23 -14 0
-18 -8 -18 -35 0 -33 12 -46 24 -26 3 5 20 11 38 14 18 3 57 12 86 19 51 13
52 14 32 31 -25 21 -25 34 0 42 26 8 40 -1 40 -26 0 -12 7 -19 19 -19 11 0 18
6 17 16 0 9 7 21 17 28 15 9 21 7 36 -12 l17 -24 17 26 c20 30 30 32 51 11 16
-17 33 -19 38 -6 3 8 150 20 257 21 30 0 52 3 48 6 -3 4 -55 7 -114 8 l-108 1
-3 28 c-2 15 -7 25 -12 22 -4 -3 -6 -14 -3 -24 6 -24 -9 -33 -42 -25 -19 5
-25 12 -25 35 0 28 2 29 53 30 28 1 67 0 84 -1 18 -1 43 6 55 15 l23 17 -28
-5 c-20 -3 -27 0 -27 12 -1 15 -1 15 -10 0 -10 -18 -58 -15 -73 5 -5 7 -6 3
-3 -8 5 -15 2 -17 -16 -12 -13 3 -31 6 -40 6 -14 0 -18 8 -18 35 0 34 2 35 36
35 28 0 35 -3 31 -15 -4 -8 -2 -17 3 -20 6 -4 9 19 8 57 -1 42 -3 50 -5 26 -4
-41 -12 -45 -43 -25 -17 10 -22 9 -30 -3 -5 -8 -10 -10 -10 -4 0 7 -26 12 -72
12 -40 0 -79 1 -86 1 -9 1 -12 12 -10 34 3 32 3 32 51 29 26 -2 47 0 47 6 0 5
11 9 25 8 14 0 25 -5 25 -9 0 -5 6 -5 13 0 6 4 20 6 30 5 9 -2 17 2 17 7 0 7
-25 11 -64 11 -61 0 -63 1 -64 25 0 14 4 28 8 30 5 3 6 14 3 25 -6 21 -28 27
-38 11 -3 -6 -16 -6 -34 0 -23 8 -27 14 -23 37 2 15 10 33 16 41 8 11 8 15 -2
18 -6 3 -12 20 -12 39 0 28 4 34 22 34 26 0 16 13 -12 15 -14 1 -20 -7 -25
-36 -4 -21 -4 -42 -2 -46 3 -4 -7 -9 -21 -10 -25 -1 -72 30 -72 48 0 8 34 21
60 24 8 0 15 5 15 10 0 11 -11 11 -39 -1 -16 -6 -18 -4 -13 10 6 14 3 17 -9
12 -8 -3 -18 -6 -20 -6 -2 0 -4 -20 -4 -44 0 -49 -19 -66 -46 -39 -15 16 -17
16 -29 0 -7 -9 -15 -17 -19 -17 -4 0 -15 -7 -23 -16 -13 -12 -13 -15 -2 -14
30 5 39 -1 39 -25 0 -21 -5 -25 -29 -25 -33 0 -54 19 -42 39 12 19 -28 62 -54
59 -15 -2 -20 3 -20 22 0 18 6 26 23 28 12 2 22 10 22 18 0 13 -13 19 -33 15
-5 -1 -11 8 -14 19 -3 11 -14 20 -24 20 -12 0 -16 -5 -13 -14 3 -8 1 -16 -4
-20 -14 -9 -52 5 -52 20 0 8 -9 14 -20 14 -13 0 -18 -5 -14 -15 5 -11 -1 -15
-20 -15 -16 0 -26 6 -26 15 0 9 -10 15 -26 15 -14 0 -23 -4 -19 -10 8 -14 -21
-24 -42 -15 -17 7 -16 8 2 15 14 6 1 9 -41 9 -62 1 -104 23 -104 56 0 8 -9 15
-20 15 -13 0 -20 7 -20 20 0 25 27 27 33 3 4 -14 5 -15 6 -2 2 32 43 39 244
43 108 1 200 6 204 10 3 3 -5 6 -20 6 -17 0 -28 7 -32 20 -9 27 1 40 31 40 15
0 24 6 24 15 0 10 -10 15 -30 15 -28 0 -30 3 -30 35 0 30 3 35 24 35 13 0 33
3 43 6 15 5 15 4 3 -5 -8 -5 -11 -13 -7 -17 4 -4 13 -2 19 4 7 7 22 12 35 12
13 0 23 5 23 11 0 7 -9 9 -21 6 -15 -4 -23 0 -26 14 -4 16 -8 17 -20 7 -8 -6
-45 -12 -84 -12 -68 -1 -76 3 -70 37 3 17 -21 5 -26 -13 -3 -11 -12 -20 -20
-20 -18 0 -73 -56 -73 -75 0 -8 -8 -15 -17 -15 -29 0 -73 -44 -73 -74 0 -19
-5 -25 -17 -23 -45 7 -52 43 -11 49 20 3 20 3 1 28 -20 25 -21 44 -8 88 5 14
3 22 -4 22 -6 0 -11 6 -11 14 0 8 -4 17 -9 20 -14 9 -41 -4 -41 -20 0 -8 -9
-14 -20 -14 -13 0 -20 7 -20 20 0 12 -7 20 -16 20 -9 0 -18 -9 -21 -20 -3 -13
-14 -20 -29 -20 -16 0 -22 4 -18 14 6 16 -19 28 -41 20 -8 -4 -15 -12 -15 -20
0 -8 -7 -14 -16 -14 -10 0 -14 6 -10 15 6 18 10 17 -79 19 -80 1 -95 8 -95 42
0 13 -4 24 -9 24 -6 0 -6 11 0 29 15 43 43 47 354 50 77 1 96 4 87 13 -17 17
-15 48 3 48 8 0 15 4 15 9 0 5 -7 16 -15 25 -8 8 -15 21 -15 30 0 20 29 48 42
40 6 -4 34 -6 63 -5 51 1 54 0 58 -27 l4 -27 2 28 c1 22 6 27 26 27 16 0 25 6
25 15 0 11 -7 14 -25 9 -23 -6 -25 -3 -25 28 0 19 6 40 13 47 10 11 10 14 0
18 -16 6 -17 73 -2 73 5 0 7 5 4 10 -15 24 -27 -6 -23 -56 3 -29 2 -51 -2 -49
-3 2 -4 -11 -2 -30 4 -38 -8 -50 -44 -41 -21 6 -25 12 -22 39 2 24 8 33 26 35
30 5 28 22 -3 22 -22 0 -25 4 -25 35 0 25 -4 35 -15 35 -9 0 -15 -6 -14 -12 5
-42 -2 -56 -30 -60 -33 -5 -41 9 -31 52 4 18 12 25 29 25 13 0 27 7 29 15 4
12 2 13 -9 3 -9 -8 -20 -9 -29 -3 -9 6 -769 10 -1867 10 l-1853 0 0 -1155z
m2629 467 c61 -59 111 -111 111 -117 0 -5 -22 -30 -49 -55 -28 -25 -82 -76
-121 -113 -87 -84 -98 -81 -102 31 l-3 77 -220 5 -220 5 -3 45 c-3 33 1 47 14
57 27 20 40 15 16 -6 -15 -12 -22 -30 -22 -55 l0 -36 225 0 225 0 0 -80 c0
-70 2 -80 18 -80 10 0 64 46 121 101 l103 102 -111 110 c-127 126 -131 126
-131 11 l0 -72 -55 -1 c-67 0 -74 17 -7 21 l47 3 1 63 c3 125 21 123 163 -16z
m-1141 -220 c105 -103 192 -193 192 -200 0 -7 -43 -54 -96 -105 -53 -51 -141
-136 -196 -189 -144 -141 -161 -135 -166 63 l-4 128 -369 3 c-427 3 -400 -3
-402 100 -2 105 -29 98 402 98 l371 0 0 120 c0 230 14 229 268 -18z m1863 80
c38 -36 69 -72 69 -81 0 -23 -138 -151 -155 -144 -11 3 -15 21 -15 59 l0 54
-145 0 -145 0 0 26 c0 43 17 49 130 48 155 -1 160 0 160 47 0 40 21 90 29 67
2 -6 35 -41 72 -76z m-1140 -329 c17 -10 33 -29 36 -43 3 -14 10 -31 16 -37
14 -19 47 -16 48 5 1 16 2 16 6 0 4 -16 17 -18 99 -18 56 0 94 4 94 10 0 6 5
10 10 10 6 0 10 -7 10 -15 0 -12 -18 -15 -105 -15 -87 0 -105 -3 -105 -15 0
-8 -5 -15 -11 -15 -5 0 -8 4 -4 9 8 14 -12 23 -35 16 -14 -4 -20 -15 -20 -36
0 -16 -4 -29 -9 -29 -5 0 -17 -8 -27 -17 -23 -23 -124 -25 -145 -3 -56 60 -60
125 -10 179 24 26 36 31 76 31 27 0 60 -8 76 -17z m294 -495 c24 -19 25 -23
25 -147 0 -165 4 -161 -153 -164 -82 -2 -120 1 -133 10 -15 11 4 13 118 13
115 0 137 2 142 16 3 9 6 66 6 129 0 82 -4 116 -14 124 -17 14 -246 14 -263
-1 -7 -6 -13 -28 -13 -49 l0 -39 58 -2 57 -1 -55 -6 -55 -6 0 -78 c0 -42 -3
-77 -7 -77 -13 0 -10 288 3 292 7 2 68 4 136 5 108 1 126 -2 148 -19z"/>
<path d="M1260 4055 c-8 -10 -12 -56 -11 -145 l2 -130 -371 0 c-435 0 -420 3
-420 -88 0 -40 5 -58 18 -68 13 -11 97 -13 395 -14 l378 0 -2 -122 c-2 -156
-2 -155 16 -162 11 -4 73 51 200 176 102 100 185 187 185 193 0 6 -79 87 -176
181 -97 93 -183 174 -189 181 -10 10 -16 9 -25 -2z"/>
<path d="M3266 3980 c-3 -23 -4 -45 -1 -50 3 -6 -56 -11 -142 -12 -145 -3
-148 -3 -151 -25 -3 -23 -3 -23 142 -23 l146 0 1 -27 c1 -16 1 -40 1 -55 -1
-33 2 -34 31 -8 12 11 39 34 60 51 20 17 37 37 37 45 0 8 5 14 11 14 7 0 -13
24 -42 53 -87 84 -85 84 -93 37z"/>
<path d="M2088 3633 c-35 -23 -55 -81 -38 -114 26 -49 52 -69 92 -69 29 0 45
7 62 25 27 30 41 87 27 112 -28 54 -96 75 -143 46z"/>
<path d="M3758 4492 c-1 -37 -1 -88 0 -114 2 -46 2 -47 -25 -45 -23 2 -27 7
-25 25 3 18 -2 22 -23 22 -22 0 -24 -3 -16 -19 9 -16 7 -20 -14 -23 -29 -6
-35 -1 -35 24 0 11 -7 18 -20 18 -13 0 -20 -7 -20 -20 0 -15 -7 -20 -26 -20
-21 0 -25 4 -21 20 4 16 0 20 -23 20 -23 0 -27 -4 -23 -20 4 -16 0 -20 -22
-20 -22 0 -26 4 -22 20 4 17 0 20 -29 20 -32 0 -34 -2 -24 -21 10 -18 9 -20
-7 -17 -10 2 -17 12 -17 21 2 14 -5 17 -29 15 -28 -3 -32 -7 -34 -38 l-3 -35
215 3 c244 4 248 3 244 -62 -1 -23 -2 -58 -1 -80 2 -33 4 -37 17 -26 8 7 15
18 15 24 0 11 35 46 46 46 3 0 19 14 36 30 16 17 25 30 20 30 -5 0 -12 6 -15
14 -4 11 1 14 21 13 16 -2 36 6 51 19 22 21 23 23 7 45 l-16 23 0 -26 c0 -14
-6 -28 -12 -31 -20 -7 -58 15 -58 33 0 26 20 41 42 29 28 -15 22 -1 -17 35
-32 30 -34 31 -37 12 -3 -23 -35 -29 -55 -9 -21 19 -16 51 8 55 19 3 18 6 -15
40 l-36 37 -2 -67z"/>
<path d="M4150 4124 c0 -9 11 -14 30 -14 17 0 31 -6 31 -12 1 -7 2 -20 3 -28
1 -20 -24 -30 -46 -18 -15 7 -18 4 -18 -16 0 -23 2 -24 30 -16 30 9 30 8 30
-31 0 -39 -1 -40 -32 -37 -25 2 -34 8 -36 26 -2 12 -8 22 -14 22 -5 0 -8 -6
-5 -14 7 -19 -12 -36 -40 -36 -18 0 -23 6 -23 25 0 18 -5 25 -20 25 -17 0 -19
-4 -14 -27 6 -24 5 -26 -17 -20 -13 4 -27 7 -31 7 -5 0 -8 11 -8 25 0 16 -6
25 -15 25 -9 0 -15 -9 -15 -24 0 -17 -7 -25 -25 -28 -21 -4 -25 -1 -25 17 0
13 -6 25 -14 28 -16 6 -36 -11 -36 -31 0 -8 -9 -12 -22 -10 -15 2 -23 10 -23
23 0 13 -7 20 -20 20 -13 0 -20 -6 -19 -17 2 -26 -32 -23 -39 3 -7 27 -27 15
-27 -16 0 -54 -3 -53 198 -49 103 2 202 6 220 8 18 2 32 -1 32 -6 0 -6 16 -8
35 -6 34 4 35 3 35 -29 0 -30 -3 -33 -30 -33 -22 0 -30 -5 -30 -17 0 -28 74
-23 102 7 l22 23 -21 -5 c-16 -4 -20 -2 -16 8 3 8 0 14 -6 14 -7 0 -7 8 1 25
8 17 14 22 19 14 4 -7 16 -9 27 -6 12 2 23 0 25 -6 2 -6 13 -1 25 11 17 17 18
22 7 22 -8 0 -15 8 -15 18 0 14 -2 15 -10 2 -6 -9 -5 -17 3 -22 6 -4 -2 -5
-18 -3 -17 2 -35 4 -41 4 -20 2 -33 45 -18 59 17 15 56 16 72 0 9 -9 12 -9 12
3 0 18 -37 42 -51 33 -6 -3 -19 2 -30 12 -12 11 -16 20 -9 24 7 4 3 15 -10 30
-23 26 -70 36 -70 14z"/>
<path d="M3746 3347 c-16 -12 -16 -14 -2 -26 9 -8 16 -18 16 -23 0 -5 9 -21
19 -36 33 -47 35 -106 5 -165 -42 -84 -97 -120 -180 -118 -55 1 -131 32 -141
57 -10 28 -24 13 -21 -22 2 -24 10 -41 23 -48 11 -6 27 -19 36 -28 43 -46 200
-13 281 59 22 19 51 84 66 143 15 62 -9 147 -53 190 -27 26 -33 28 -49 17z"/>
<path d="M3934 3346 c-4 -10 -13 -11 -44 -2 -22 5 -42 8 -44 5 -6 -6 25 -94
37 -105 11 -11 8 -121 -3 -144 -5 -11 -15 -30 -21 -41 -12 -24 5 -54 19 -33 6
9 44 28 107 53 113 47 105 39 105 97 0 29 -4 56 -10 59 -5 3 -10 12 -10 18 0
7 4 6 10 -3 7 -11 10 -5 10 23 0 20 -4 37 -10 37 -5 0 -10 6 -10 14 0 19 -39
31 -53 17 -13 -13 -47 -15 -47 -2 0 15 -30 21 -36 7z"/>
<path d="M3576 3321 c-3 -4 -20 -11 -37 -15 -49 -10 -89 -73 -89 -142 0 -43 1
-44 33 -44 33 0 33 0 33 49 -1 69 20 91 91 91 40 0 53 -4 53 -15 0 -8 5 -15
10 -15 6 0 10 18 10 40 0 36 -3 40 -24 40 -14 0 -28 5 -31 10 -8 12 -42 13
-49 1z"/>
<path d="M3710 3192 c0 -96 -10 -104 -133 -103 -78 1 -97 -2 -108 -16 -9 -10
-9 -14 -2 -10 16 10 53 -13 53 -33 0 -13 1 -13 10 0 8 12 13 13 30 3 24 -15
66 -17 75 -3 3 6 15 10 25 10 53 0 103 119 78 186 -19 52 -28 41 -28 -34z"/>
<path d="M4742 3216 c5 -23 3 -23 -26 -13 -17 5 -36 14 -42 18 -6 5 -25 2 -44
-7 -21 -11 -34 -13 -39 -6 -7 12 -160 -3 -196 -18 -11 -5 -29 -11 -40 -13 -18
-4 -18 -5 3 -6 17 -1 22 -7 22 -27 0 -21 -4 -25 -22 -22 -15 2 -24 11 -26 26
-2 12 -9 22 -16 22 -18 0 -35 -21 -29 -36 7 -20 -24 -18 -35 2 -9 16 -13 15
-50 -2 -48 -22 -59 -59 -19 -67 l22 -4 -22 -2 c-13 0 -23 -5 -23 -11 0 -15 66
-12 79 4 7 8 28 16 49 19 20 3 55 10 77 16 22 5 61 15 87 22 35 9 48 17 50 33
4 26 58 37 58 12 0 -9 7 -16 15 -16 8 0 15 9 15 21 0 16 4 19 20 14 14 -5 20
-2 20 9 0 9 4 16 10 16 5 0 7 -6 4 -13 -3 -8 2 -19 10 -26 12 -10 17 -9 25 7
11 21 48 20 64 -2 5 -7 12 -5 21 7 14 18 66 24 66 7 0 -5 5 -10 10 -10 6 0 10
7 10 15 0 11 -11 15 -41 15 -32 0 -42 4 -46 20 -8 28 -26 25 -21 -4z"/>
<path d="M4675 3119 c-130 -14 -220 -30 -229 -39 -7 -7 -4 -10 7 -10 10 0 17
-8 17 -20 0 -15 -7 -20 -25 -20 -18 0 -25 5 -25 20 0 13 -7 20 -20 20 -13 0
-20 -7 -20 -20 0 -15 -7 -20 -26 -20 -14 0 -23 4 -19 10 9 14 -17 12 -67 -4
-24 -8 -57 -17 -74 -21 -31 -6 -32 -8 -33 -60 l0 -53 27 9 c56 18 62 22 63 35
1 8 2 19 3 26 1 13 26 24 26 11 0 -5 -5 -14 -12 -21 -9 -9 -8 -12 4 -12 36 0
79 14 75 24 -3 7 17 12 60 13 36 0 70 6 76 12 6 6 22 11 37 11 52 0 70 11 70
41 0 25 4 29 26 29 17 0 28 -6 31 -20 3 -11 12 -20 20 -20 9 0 13 6 10 13 -11
30 10 40 87 39 42 -1 81 -4 86 -7 5 -3 11 -1 15 4 3 6 12 8 20 4 11 -4 13 -1
9 11 -7 18 -24 22 -24 6 0 -5 -7 -10 -15 -10 -9 0 -12 6 -9 15 4 8 1 15 -5 15
-6 0 -11 -5 -11 -11 0 -7 -9 -9 -22 -6 -13 3 -32 7 -43 10 -11 2 -51 1 -90 -4z"/>
<path d="M4065 3092 c-10 -3 -29 -10 -40 -18 -11 -7 -30 -15 -40 -17 -11 -2
-42 -13 -69 -25 -27 -12 -53 -22 -59 -22 -5 0 -19 -10 -31 -23 -12 -13 -37
-32 -56 -43 -19 -10 -37 -22 -40 -25 -3 -3 -26 -11 -52 -18 -53 -15 -150 -7
-193 15 -15 8 -31 14 -36 14 -5 0 -9 -43 -9 -95 0 -139 -14 -132 280 -134 188
-1 247 2 280 14 48 17 62 19 40 5 -8 -5 -12 -12 -8 -15 10 -10 49 19 43 32 -2
7 -1 13 4 13 11 0 21 63 14 89 -6 25 -12 23 -146 -39 -37 -17 -73 -29 -80 -26
-7 2 -4 5 6 5 9 1 17 6 17 11 0 6 5 10 12 10 6 0 36 12 67 26 136 62 131 57
124 115 -5 35 -5 35 -39 25 -19 -6 -34 -14 -34 -18 0 -4 -18 -11 -40 -14 -22
-4 -40 -10 -40 -15 0 -5 -7 -9 -15 -9 -26 0 -16 19 13 26 15 4 38 15 52 25 14
9 42 20 62 24 42 8 46 15 38 70 -4 34 -8 40 -25 37z"/>
<path d="M4690 3009 c-136 -18 -137 -18 -132 -50 5 -31 -6 -36 -39 -18 -11 5
-17 14 -14 18 7 13 -20 21 -36 10 -8 -5 -10 -9 -5 -9 5 0 3 -7 -4 -15 -15 -18
-41 -20 -37 -3 3 17 -34 23 -44 7 -4 -7 -27 -14 -51 -16 -24 -1 -52 -7 -63
-12 -11 -4 -39 -17 -62 -27 -41 -18 -43 -21 -43 -61 0 -24 4 -43 10 -43 17 0
144 43 158 53 7 5 10 18 7 28 -5 15 -1 19 19 19 19 0 26 -5 26 -20 0 -16 4
-18 23 -11 12 5 21 14 19 21 -2 8 9 10 37 5 23 -4 42 -2 45 4 4 5 43 13 87 17
69 6 82 10 89 28 4 11 4 22 -1 24 -19 8 6 32 33 32 28 0 30 -2 26 -30 -4 -24
-1 -30 14 -30 13 0 18 8 18 30 0 27 3 30 30 30 23 0 30 -4 30 -20 0 -11 5 -20
10 -20 6 0 10 10 10 23 0 19 5 23 33 22 27 0 32 -4 31 -22 -1 -33 24 -28 28 5
3 23 8 27 33 27 17 0 33 -4 36 -8 3 -5 9 -2 12 7 5 13 -12 15 -136 14 -78 -1
-167 -4 -197 -9z"/>
<path d="M2692 2907 c-20 -21 -22 -34 -22 -130 l0 -107 116 0 c88 0 119 3 130
15 12 11 14 39 12 127 l-3 113 -105 3 c-100 2 -107 1 -128 -21z"/>
<path d="M2950 2928 c0 -2 -2 -59 -5 -128 -3 -104 -7 -126 -21 -137 -12 -9
-56 -13 -136 -13 l-118 0 0 -114 c0 -81 4 -123 15 -143 8 -15 20 -42 26 -59 7
-17 25 -40 40 -50 32 -21 41 -62 19 -84 -11 -11 -30 -14 -63 -12 -40 3 -47 1
-47 -14 0 -16 -1 -16 -18 -1 -23 21 -52 22 -52 2 0 -14 64 -37 99 -36 9 1 25
2 36 2 11 1 40 -1 65 -4 25 -3 51 -6 58 -6 6 -1 12 -8 12 -16 0 -9 6 -26 14
-38 19 -30 29 -77 16 -77 -5 0 -10 -7 -10 -16 0 -13 3 -14 14 -5 15 13 32 -1
22 -18 -3 -5 1 -28 9 -51 8 -23 15 -45 15 -47 0 -9 -26 23 -33 40 -10 26 -24
20 -29 -13 -6 -39 17 -90 42 -97 11 -3 20 -9 20 -14 0 -9 -13 -12 -26 -6 -4 1
-11 -8 -15 -21 -12 -32 6 -62 36 -62 23 0 35 -23 18 -33 -5 -2 -2 -2 5 -1 7 2
12 -8 12 -26 0 -17 4 -30 9 -30 6 0 10 -8 10 -17 0 -10 2 -35 5 -55 4 -22 2
-40 -5 -44 -8 -4 -7 -9 2 -15 10 -6 11 -9 2 -9 -7 0 -13 -9 -13 -20 0 -11 -4
-20 -10 -20 -5 0 -10 5 -10 12 0 9 -3 9 -11 1 -9 -9 -8 -16 4 -27 21 -21 24
-20 31 10 6 21 10 24 19 15 8 -8 8 -14 2 -19 -6 -4 -17 -20 -24 -37 -11 -23
-15 -26 -18 -12 -3 9 -9 17 -15 17 -5 0 -8 -6 -5 -14 3 -8 1 -17 -6 -19 -9 -3
-9 -8 1 -18 17 -18 15 -32 -3 -26 -9 4 -21 -5 -32 -23 -11 -20 -25 -30 -40
-30 -13 0 -26 -7 -29 -15 -4 -8 -12 -15 -20 -15 -8 0 -14 -4 -14 -10 0 -16 27
-12 34 5 3 8 15 15 27 15 13 0 31 7 41 17 16 14 18 14 18 1 0 -14 -20 -29 -42
-32 -3 -1 -17 -10 -30 -22 -13 -11 -28 -19 -33 -17 -15 4 -40 -15 -32 -24 5
-4 12 -1 17 7 7 12 11 10 18 -10 7 -17 6 -26 -1 -29 -6 -2 -13 1 -15 7 -2 6
-10 8 -18 5 -19 -7 -44 14 -44 38 0 9 -7 25 -16 33 -8 9 -12 16 -7 16 4 0 1 6
-8 13 -9 7 -19 24 -23 40 -5 20 -12 27 -31 27 -26 0 -34 -15 -12 -23 7 -3 5
-6 -5 -6 -10 -1 -18 -7 -18 -13 0 -9 -3 -8 -10 2 -8 13 -11 12 -24 -5 -9 -11
-16 -27 -16 -36 0 -21 -61 -139 -72 -139 -4 0 -8 -7 -8 -16 0 -9 -12 -25 -26
-36 -22 -18 -25 -28 -24 -72 4 -126 1 -148 -20 -153 -24 -6 -27 -23 -5 -23 13
0 13 -2 3 -14 -8 -9 -15 -10 -19 -4 -4 6 -11 8 -17 4 -5 -3 -10 4 -10 17 -1
40 -14 87 -24 87 -6 0 -8 9 -5 20 3 11 1 20 -4 20 -5 0 -9 5 -9 10 0 6 -9 30
-20 52 -11 23 -20 48 -20 55 0 7 -4 13 -9 13 -4 0 -9 12 -9 28 -4 81 -15 132
-28 132 -8 0 -19 10 -24 22 -6 17 -9 18 -9 6 -2 -30 -21 -30 -52 1 -20 20 -25
31 -16 31 8 0 18 7 21 16 4 11 1 14 -12 12 -18 -4 -55 29 -85 75 -17 26 -21
27 -75 22 -75 -8 -87 -8 -152 1 -58 7 -73 17 -84 52 -11 35 -29 25 -55 -28
-13 -28 -28 -50 -33 -50 -4 0 -8 -7 -8 -15 0 -8 5 -15 10 -15 6 0 10 3 10 8 0
4 11 19 23 33 13 13 27 31 30 39 4 12 6 11 6 -2 1 -10 9 -18 19 -18 12 0 13
-3 5 -8 -21 -13 -3 -50 30 -63 18 -7 40 -22 49 -33 19 -23 24 -66 8 -66 -5 0
-10 -9 -10 -19 0 -10 -7 -21 -15 -25 -8 -3 -15 -17 -15 -31 0 -17 -12 -38 -35
-59 -19 -19 -35 -38 -35 -43 0 -5 -19 -16 -42 -24 -51 -19 -57 -32 -21 -46
l28 -11 -36 -1 c-41 -1 -99 -23 -129 -48 -16 -14 -20 -30 -20 -75 0 -54 2 -58
23 -58 13 0 27 4 32 9 6 5 19 12 30 15 17 5 20 2 20 -19 -1 -14 -5 -28 -8 -32
-4 -3 -7 -15 -7 -25 0 -18 -16 -59 -62 -156 -11 -23 -24 -39 -30 -36 -6 4 -8
-1 -3 -15 3 -11 3 -21 -2 -21 -5 0 -14 -13 -20 -30 -6 -16 -18 -30 -27 -30 -9
0 -16 -4 -16 -10 0 -5 -6 -10 -14 -10 -7 0 -19 -6 -26 -14 -6 -8 -19 -12 -28
-9 -14 6 -15 4 -5 -9 11 -12 9 -17 -10 -26 -12 -6 -31 -13 -42 -15 -14 -3 -11
-5 9 -6 24 -1 26 -3 16 -15 -6 -8 -19 -12 -27 -9 -12 5 -15 2 -10 -10 3 -9 1
-19 -5 -23 -7 -4 -8 -3 -4 4 4 7 1 12 -8 12 -9 0 -16 5 -16 10 0 6 -8 5 -20
-2 -17 -11 -22 -10 -30 2 -6 10 -10 11 -10 3 0 -7 -9 -13 -20 -13 -11 0 -20 6
-20 13 0 9 -3 8 -9 -2 -13 -21 -292 -3 -331 21 -11 7 -7 8 12 5 16 -2 28 -1
28 2 0 3 95 5 212 3 117 -1 209 0 205 4 -4 4 -2 13 4 21 9 10 8 13 -5 13 -9 0
-16 -7 -16 -15 0 -14 -23 -15 -188 -11 -103 2 -229 10 -279 16 -51 6 -97 9
-102 6 -17 -11 -65 23 -66 45 0 12 -11 29 -25 38 -14 9 -21 11 -16 4 4 -9 1
-13 -10 -13 -12 0 -15 -7 -12 -30 5 -30 4 -31 -36 -26 -23 3 -62 5 -88 5 -37
1 -46 4 -42 15 4 11 12 13 31 5 38 -14 68 -11 88 11 17 19 17 20 -1 21 -10 1
-29 0 -42 -1 -13 -1 -32 6 -43 16 -12 11 -19 13 -19 5 0 -7 -6 -11 -12 -8 -7
2 -21 -2 -30 -11 -16 -14 -18 -13 -18 2 0 9 -11 34 -25 54 -17 25 -25 31 -25
19 0 -10 -5 -15 -11 -12 -5 4 -9 17 -8 28 0 12 1 26 0 30 -1 10 -25 -13 -34
-33 -4 -8 -5 -1 -2 15 3 17 2 25 -2 19 -14 -20 -79 -11 -107 15 -14 13 -24 28
-23 34 1 6 -15 11 -36 12 -22 1 -42 6 -45 12 -4 5 -14 13 -22 16 -8 4 1 4 20
1 l35 -5 -33 17 c-28 14 -35 15 -42 4 -5 -8 -9 -164 -10 -347 l-1 -333 3201 0
c3133 0 3200 0 3200 19 0 10 -7 21 -15 25 -8 3 -15 17 -15 30 0 18 4 24 15 20
10 -4 15 0 15 15 0 12 -6 21 -15 21 -10 0 -15 10 -15 30 0 20 5 30 15 30 8 0
15 9 15 20 0 13 -5 18 -15 14 -12 -5 -15 2 -15 30 0 25 4 36 15 36 8 0 15 7
15 15 0 8 -9 15 -20 15 -15 0 -19 5 -16 23 3 12 5 25 5 30 1 4 8 7 16 7 8 0
15 7 15 16 0 9 -6 14 -13 11 -14 -5 -39 18 -29 28 4 4 8 11 8 16 1 5 2 13 3
19 0 5 8 7 16 4 9 -4 15 0 15 9 0 8 -8 17 -19 20 -10 2 -20 16 -23 31 -4 22
-2 26 18 26 15 0 24 6 24 15 0 8 -6 15 -14 15 -8 0 -20 17 -27 37 -16 52 -27
63 -60 63 -25 0 -29 4 -29 28 -1 38 -22 62 -57 62 -27 0 -30 3 -30 32 0 35
-32 68 -67 68 -16 0 -21 7 -22 26 -2 28 -30 64 -51 64 -7 0 -22 6 -33 12 -17
11 -22 10 -30 -2 -8 -12 -14 -12 -44 -2 -24 9 -41 10 -54 3 -11 -6 -23 -6 -33
0 -7 5 -35 7 -61 3 -44 -5 -48 -4 -48 15 0 21 0 21 -20 1 -24 -24 -43 -25 -60
-5 -15 18 -56 16 -52 -3 1 -6 -7 -12 -18 -12 -13 0 -20 7 -20 20 0 12 -7 20
-16 20 -9 0 -18 -9 -21 -20 -3 -12 -14 -20 -27 -20 -19 1 -19 2 -3 11 21 12
23 33 2 25 -8 -3 -21 1 -29 9 -8 8 -31 15 -50 15 -24 0 -36 5 -36 14 0 11 10
11 63 0 139 -29 192 -35 217 -25 22 9 20 10 -22 10 -26 1 -49 5 -52 10 -4 5
-41 12 -84 16 -42 3 -86 10 -97 15 -21 9 -115 29 -175 38 -19 2 -38 9 -41 14
-3 5 -46 10 -95 12 -72 3 -111 11 -195 41 -57 20 -111 39 -119 42 -9 2 -31 -9
-50 -26 -19 -17 -39 -31 -43 -31 -5 0 -28 -14 -51 -30 -39 -28 -76 -33 -76
-10 0 16 -79 59 -116 63 -22 2 -10 4 25 3 41 0 65 -5 68 -13 3 -7 11 -13 19
-13 8 0 14 -5 14 -12 0 -6 3 -9 6 -6 8 8 -17 46 -36 55 -8 4 -100 10 -205 13
l-190 6 197 2 c108 1 199 6 202 11 8 13 -46 19 -149 15 -87 -2 -88 -2 -25 6
36 4 81 12 100 18 29 7 32 11 17 17 -10 4 -29 3 -43 -4 -29 -13 -98 -15 -90
-2 3 4 16 6 30 4 13 -3 27 0 30 6 4 6 18 11 31 11 12 0 25 7 29 15 4 12 0 14
-19 9 -14 -3 -31 -2 -38 4 -6 5 -31 13 -55 17 -23 4 -40 11 -36 16 3 5 9 7 14
4 5 -3 11 -1 15 5 3 5 -1 10 -9 10 -9 0 -16 5 -16 10 0 6 7 10 15 10 8 0 15
-4 15 -10 0 -5 10 -10 23 -10 12 0 49 -14 82 -30 33 -16 67 -30 76 -30 8 0 19
-4 25 -8 5 -4 34 -16 64 -26 30 -10 70 -25 88 -33 32 -14 72 -10 72 7 0 5 8
11 18 14 10 4 27 14 38 24 20 18 109 89 165 132 18 14 38 30 44 36 6 6 21 15
33 18 12 4 22 12 22 17 0 5 5 9 11 9 6 0 16 6 23 13 14 13 5 28 -24 40 -10 4
-8 6 6 6 12 1 27 -6 34 -14 15 -18 39 -20 45 -2 4 8 30 13 74 14 64 1 69 0 66
-18 -2 -12 2 -19 11 -19 8 0 14 -3 14 -8 0 -10 66 -33 113 -39 22 -3 37 -11
37 -19 0 -18 35 -49 82 -74 46 -24 48 -24 48 -5 0 9 9 15 25 15 21 0 25 -5 25
-29 0 -17 -5 -33 -11 -36 -19 -12 33 -39 71 -36 34 2 35 1 36 -34 1 -41 15
-55 57 -55 23 0 27 -4 27 -30 0 -23 6 -33 25 -42 14 -6 25 -15 25 -19 0 -5 10
-8 23 -6 14 1 21 -3 19 -12 -4 -19 8 -51 19 -51 6 0 18 -7 26 -16 14 -13 30
-15 92 -9 42 4 77 8 78 9 7 6 -12 56 -24 60 -12 5 -14 1 -11 -18 6 -28 -7 -36
-44 -29 -37 7 -37 57 0 78 l27 14 -27 1 c-25 0 -28 4 -28 35 0 19 -5 35 -10
35 -6 0 -10 -6 -9 -13 6 -46 -1 -57 -36 -57 -33 0 -35 2 -35 35 0 34 2 35 38
36 20 1 55 1 77 1 22 -1 43 4 47 11 6 9 11 8 18 -3 9 -13 10 -13 10 0 0 13
-15 16 -83 15 -45 -1 -88 -4 -95 -9 -9 -5 -12 6 -12 42 l0 49 42 -7 c24 -5 50
-5 58 0 8 4 20 5 27 3 6 -2 14 1 18 7 5 8 -4 11 -31 10 -82 -5 -104 -1 -113
22 l-8 22 -5 -22 c-5 -16 -14 -22 -36 -22 -26 0 -30 4 -35 33 -2 17 -4 33 -2
35 1 1 32 3 69 4 36 0 66 5 66 11 0 5 -6 7 -14 4 -7 -3 -19 0 -25 6 -8 8 -14
9 -19 1 -8 -12 -64 -13 -73 -2 -3 4 -3 23 -1 42 3 29 9 36 31 39 17 3 12 5
-16 6 -42 1 -43 1 -39 -31 5 -46 -1 -56 -35 -53 -40 3 -43 8 -30 46 8 24 8 35
0 39 -6 4 -9 14 -7 23 2 9 -1 16 -7 16 -5 0 -9 -7 -7 -15 2 -8 -1 -15 -5 -15
-65 -10 -64 -10 -61 29 3 32 6 37 28 36 14 0 31 -3 39 -5 11 -3 15 6 15 33 1
21 -2 38 -6 38 -5 0 -8 -9 -8 -19 0 -46 -65 -38 -72 8 -4 25 -1 30 22 35 15 3
37 2 49 -1 21 -5 22 -3 15 33 -8 48 -14 56 -14 22 0 -29 -12 -37 -46 -30 -28
5 -33 38 -27 161 3 64 1 91 -6 86 -6 -3 -11 -17 -11 -30 0 -43 -58 -44 -78 -2
l-11 22 0 -23 c-1 -20 -5 -23 -33 -20 -29 3 -33 7 -36 36 -2 24 1 32 12 32 20
0 21 19 1 26 -8 4 -15 12 -15 20 0 8 -5 14 -11 14 -7 0 -9 -10 -5 -27 5 -22 4
-25 -4 -13 -8 11 -13 12 -16 3 -8 -19 -54 6 -54 29 0 11 -5 16 -11 13 -6 -4
-8 -13 -5 -20 5 -14 -25 -22 -63 -17 -17 3 -20 6 -11 12 14 9 7 40 -10 40 -5
0 -10 -11 -10 -25 0 -21 -5 -25 -30 -25 -25 0 -30 4 -30 25 0 16 -6 25 -15 25
-9 0 -15 -9 -15 -25 0 -21 -5 -25 -31 -25 -22 0 -30 4 -26 13 7 19 -8 41 -22
33 -6 -4 -11 -16 -11 -27 0 -14 -7 -19 -30 -19 -20 0 -30 5 -30 15 0 8 -7 15
-15 15 -8 0 -15 -7 -15 -15 0 -9 -9 -15 -25 -15 -16 0 -25 6 -25 15 0 8 -4 15
-10 15 -5 0 -10 4 -10 9 0 5 23 9 50 9 28 1 54 3 59 7 5 3 92 8 192 11 101 3
185 7 188 9 2 3 -5 5 -17 5 -18 0 -22 6 -22 30 0 17 -4 30 -10 30 -5 0 -7 -6
-4 -13 8 -22 -20 -50 -44 -43 -17 6 -22 15 -22 42 0 24 -5 34 -15 34 -10 0
-15 -11 -15 -35 0 -32 -3 -35 -29 -35 -31 0 -43 16 -34 49 4 16 1 21 -13 21
-15 0 -19 -7 -19 -32 0 -29 -3 -33 -25 -33 -21 0 -26 5 -28 33 -2 19 -9 32
-17 32 -8 0 -15 -13 -17 -32 -2 -28 -7 -33 -28 -33 -20 0 -26 6 -28 28 -4 32
-25 31 -30 -1 -5 -30 -52 -31 -52 -2 0 13 -7 20 -20 20 -13 0 -20 -7 -20 -20
0 -15 -7 -20 -25 -20 -15 0 -24 5 -23 13 2 7 -7 12 -22 12 -16 0 -24 -5 -22
-14 2 -10 -4 -12 -25 -7 -38 9 -43 9 -82 1 -29 -7 -33 -6 -29 11 3 16 15 19
96 21 51 1 101 7 112 13 10 5 37 10 59 10 43 0 56 18 21 27 -13 3 -20 14 -20
29 0 19 5 24 25 24 23 0 25 -4 23 -35 -3 -42 7 -53 32 -37 11 7 43 13 72 13
29 1 45 3 36 6 -11 3 -18 14 -18 29 0 20 5 24 30 24 27 0 30 -3 30 -30 0 -22
5 -30 18 -30 15 0 18 6 14 30 -4 27 -2 30 24 31 29 1 29 1 -4 9 -45 11 -282
11 -318 0 -16 -4 -24 -9 -18 -9 6 -1 12 -12 12 -26 0 -20 -6 -25 -24 -25 -19
0 -24 5 -24 24 0 13 5 26 12 28 9 3 9 6 0 12 -7 4 -12 2 -12 -3 0 -6 -9 -11
-20 -11 -15 0 -20 -7 -20 -26 0 -21 -4 -25 -22 -22 -13 2 -23 10 -23 18 0 23
-32 24 -51 1 -13 -15 -21 -18 -31 -9 -28 23 -12 34 65 46 118 19 132 23 132
33 0 6 -8 9 -17 7 -13 -2 -17 3 -15 17 7 40 54 46 57 8 1 -13 -2 -23 -7 -23
-4 0 -8 -4 -8 -10 0 -5 11 -10 24 -10 21 0 24 4 22 33 -1 28 2 32 24 32 18 0
26 -6 28 -22 2 -13 10 -23 17 -23 7 0 15 10 17 23 2 17 10 22 33 22 25 0 30
-3 27 -22 -2 -16 2 -23 13 -23 11 0 15 7 13 23 -3 19 1 22 32 22 31 0 35 -3
32 -22 -2 -13 2 -23 7 -23 11 0 15 13 12 38 -1 9 21 12 81 13 76 1 79 2 43 11
-47 11 -430 14 -527 4 -63 -7 -74 -13 -69 -40 3 -15 -20 -35 -34 -30 -8 3 -15
15 -17 27 -4 27 -19 27 -33 0 -8 -16 -15 -18 -38 -10 -15 5 -27 12 -27 16 0
11 72 31 113 31 20 0 39 5 42 10 3 6 14 10 23 10 13 0 18 8 17 28 0 21 5 28
23 30 18 3 22 -1 22 -23 0 -20 4 -26 18 -23 9 2 18 9 18 16 1 6 2 17 3 22 1
13 31 13 51 0 12 -8 13 -12 2 -19 -11 -7 -11 -9 0 -13 21 -8 38 2 38 23 0 14
7 19 25 19 16 0 25 -6 25 -15 0 -8 7 -15 15 -15 8 0 15 7 15 15 0 10 11 15 35
15 26 0 33 -3 29 -15 -4 -9 0 -15 9 -15 8 0 17 13 21 32 7 36 -7 59 -26 40
-14 -14 -68 -16 -68 -2 0 6 -7 10 -15 10 -8 0 -15 -4 -15 -10 0 -5 -11 -10
-25 -10 -14 0 -25 5 -25 10 0 6 -9 10 -20 10 -11 0 -20 -4 -20 -8 0 -5 -61
-12 -136 -15 -143 -7 -174 0 -174 35 0 27 38 23 42 -4 4 -31 31 -29 38 2 7 29
47 37 42 8 -2 -13 4 -18 23 -18 18 0 25 5 25 19 0 28 47 34 54 7 l6 -21 19 23
c22 25 49 29 57 7 8 -19 33 -20 40 -1 6 15 54 19 54 5 0 -5 7 -9 15 -9 8 0 15
5 15 10 0 6 14 10 30 10 17 0 30 -4 30 -10 0 -5 7 -10 16 -10 10 0 13 6 10 18
-4 13 -1 19 9 19 8 0 15 -4 15 -9 0 -4 5 -8 10 -8 6 0 10 7 10 15 0 8 -9 15
-20 15 -10 0 -24 8 -29 18 -10 16 -10 16 -11 0 0 -14 -8 -18 -35 -18 -24 0
-35 5 -35 15 0 8 -7 15 -16 15 -10 0 -14 -6 -11 -14 4 -10 -4 -15 -24 -18 -23
-4 -29 -1 -29 14 0 10 -7 18 -15 18 -8 0 -15 -7 -15 -15 0 -19 -66 -21 -73 -2
-3 9 -8 9 -18 1 -8 -6 -59 -11 -113 -12 -54 -1 -104 -6 -110 -11 -6 -5 -28 -8
-49 -7 -20 0 -37 -2 -37 -6 0 -5 -11 -8 -24 -8 -18 0 -25 -7 -29 -30 -4 -19
-13 -30 -24 -30 -13 0 -14 3 -5 12 19 19 14 28 -13 28 -30 0 -79 -21 -66 -29
5 -3 -23 -6 -62 -7 -40 0 -63 2 -52 4 11 2 25 8 31 13 6 5 18 7 27 3 8 -3 18
-1 22 5 3 6 19 11 36 11 16 0 29 4 29 9 0 4 20 11 45 15 63 8 90 23 75 41 -15
18 -5 35 21 35 12 0 19 -7 19 -19 0 -20 17 -31 38 -24 6 3 12 13 12 24 0 12 7
19 20 19 11 0 20 -7 20 -15 0 -21 23 -19 43 5 14 17 21 19 38 10 11 -7 28 -8
37 -4 9 3 54 6 99 6 87 -2 139 10 128 29 -4 6 -12 8 -19 6 -6 -3 -17 1 -23 9
-9 9 -9 14 -1 16 6 2 8 10 4 16 -12 20 -26 13 -26 -13 0 -18 -7 -26 -24 -31
-31 -7 -46 1 -46 27 0 10 -7 19 -15 19 -9 0 -15 -9 -15 -24 0 -22 -3 -23 -27
-17 -16 4 -28 14 -28 22 0 8 -7 14 -15 14 -8 0 -14 -5 -13 -12 4 -17 -35 -27
-51 -14 -8 7 -31 9 -52 6 -22 -3 -57 -7 -79 -10 -62 -8 -126 -21 -176 -38 -26
-8 -52 -11 -58 -8 -6 4 12 14 40 21 27 8 52 18 55 22 3 4 16 8 29 8 34 0 55
10 55 27 0 12 9 14 50 8 30 -4 50 -3 50 3 0 5 19 9 43 9 23 0 102 4 175 8 100
6 132 11 132 22 0 7 -4 13 -9 13 -5 0 -12 10 -14 23 -4 18 -4 17 -6 -6 -1 -26
-4 -28 -33 -25 -28 2 -34 8 -36 31 -4 34 -27 31 -27 -4 0 -20 -5 -24 -30 -24
-26 0 -30 3 -28 28 1 18 -3 27 -13 27 -8 0 -14 -10 -14 -24 0 -41 -53 -45 -63
-4 -7 23 -32 19 -32 -5 0 -9 -3 -17 -7 -17 -45 -1 -50 1 -44 15 7 20 -18 20
-34 0 -10 -12 -35 -14 -60 -5 -3 2 -9 1 -15 0 -15 -4 -137 -30 -167 -37 -16
-3 -28 -9 -28 -13 0 -4 -19 -10 -42 -14 -23 -4 -48 -12 -55 -18 -7 -6 -31 -12
-53 -13 -21 -2 -45 -7 -52 -12 -21 -13 -78 -31 -78 -24 0 8 80 41 100 41 8 0
24 7 34 15 11 8 35 15 53 15 18 0 33 5 33 10 0 6 11 10 24 10 14 0 28 5 31 10
3 6 15 10 26 10 17 0 23 12 22 48 -1 6 8 12 19 12 16 0 19 -5 15 -21 -5 -19
-3 -21 25 -15 17 3 35 6 41 6 6 0 2 7 -9 15 -18 14 -18 14 6 15 15 0 31 -5 38
-12 9 -9 15 -9 24 0 7 7 36 12 64 12 29 0 55 4 58 8 3 5 26 9 53 10 90 4 101
9 99 45 -1 29 2 32 29 32 26 0 30 -3 30 -29 1 -16 6 -31 13 -34 8 -2 12 8 12
32 0 30 4 35 28 39 15 2 -28 5 -96 6 -90 1 -124 -2 -126 -11 -3 -7 -7 -25 -10
-40 -4 -19 -13 -28 -26 -28 -19 0 -36 32 -25 50 4 6 -5 10 -20 10 -21 0 -26
-4 -23 -22 2 -19 -2 -24 -25 -26 -15 -2 -27 0 -26 5 4 21 -2 33 -16 33 -8 0
-15 -6 -15 -14 0 -19 -40 -32 -50 -17 -5 9 -18 9 -51 1 -24 -6 -66 -16 -94
-21 -27 -6 -65 -19 -83 -30 -19 -11 -38 -17 -43 -13 -22 13 -71 -22 -95 -68
-40 -78 -41 -78 -376 -78 -239 1 -297 3 -312 15 -10 8 -22 12 -27 10 -4 -3 -7
-93 -8 -201 0 -168 -3 -200 -17 -223 -38 -58 -28 -56 -298 -59 -263 -3 -296
-1 -296 23 0 21 18 23 265 24 156 1 237 6 255 14 l25 12 3 314 c2 311 2 315
-20 338 -21 22 -26 23 -205 23 -101 0 -183 -1 -183 -2z"/>
<path d="M812 2208 c-7 -7 -12 -20 -12 -29 0 -9 -7 -19 -15 -23 -9 -3 -15 -18
-15 -40 0 -19 -6 -36 -12 -39 -23 -7 9 -52 39 -54 14 0 21 2 16 5 -6 4 -13 21
-15 37 -3 17 -3 24 -1 18 3 -7 8 -13 13 -13 5 0 10 -6 13 -12 2 -7 2 -2 -1 12
-2 14 -4 32 -3 40 1 8 2 31 3 50 1 19 3 27 5 17 3 -13 11 -15 29 -11 19 5 23
3 18 -10 -4 -12 0 -16 15 -16 12 0 21 -6 21 -15 0 -19 11 -19 36 0 37 28 72
18 172 -49 23 -16 45 -26 48 -23 7 7 -48 57 -63 57 -7 0 -13 3 -13 8 0 29
-139 58 -155 32 -9 -15 -25 -12 -25 5 0 9 -7 18 -16 22 -12 4 -13 7 -3 14 18
10 11 15 -31 23 -23 4 -40 2 -48 -6z"/>
<path d="M333 2153 c-7 -3 -13 -18 -13 -33 0 -16 6 -33 13 -37 6 -4 17 -17 23
-28 6 -11 28 -29 50 -40 67 -34 68 -35 44 -52 -15 -11 -18 -18 -11 -27 8 -9 7
-21 -2 -39 -16 -35 -28 -34 -21 2 5 23 0 34 -32 65 -20 20 -41 36 -45 36 -15
0 -60 44 -75 73 -20 38 -36 37 -89 -11 -8 -7 -30 -12 -50 -10 -35 2 -54 -11
-55 -39 0 -7 -16 -24 -35 -39 -35 -26 -35 -27 -35 -105 l0 -79 29 0 c17 0 33
4 36 10 3 5 20 10 38 9 48 0 100 6 120 15 22 10 50 0 44 -17 -2 -6 -1 -22 4
-33 5 -14 3 -28 -6 -40 -8 -11 -15 -22 -15 -26 0 -11 76 -48 99 -48 32 0 52
-12 62 -36 6 -17 16 -24 34 -24 14 0 37 -7 50 -16 37 -24 59 -12 51 30 -5 28
-3 37 15 49 34 25 15 34 -73 36 -115 3 -112 11 5 11 85 0 97 2 98 18 1 19 3
34 14 72 4 19 1 31 -15 45 -14 13 -17 21 -9 26 8 5 4 15 -14 32 -15 13 -27 29
-27 35 0 5 -7 12 -15 16 -9 3 -15 18 -15 40 0 36 -21 66 -46 66 -8 0 -14 5
-14 10 0 6 -6 10 -13 10 -8 0 -24 11 -37 25 -13 14 -29 25 -36 25 -7 0 -14 6
-16 13 -2 8 -9 12 -15 10z"/>
<path d="M2653 2043 c-7 -2 -13 -16 -13 -29 0 -24 8 -28 44 -24 11 1 38 -1 62
-5 79 -11 63 -74 -23 -90 -18 -3 -33 -10 -33 -15 0 -6 -6 -10 -13 -10 -31 0
-47 -35 -47 -103 l0 -67 80 -1 c160 -2 150 -3 150 20 0 11 6 23 13 28 7 5 -27
10 -78 13 -85 5 -90 6 -93 28 -4 25 21 51 48 52 8 0 34 7 57 16 37 14 45 23
53 56 16 58 -3 103 -52 123 -36 14 -128 19 -155 8z"/>
<path d="M2517 2013 c-3 -15 1 -23 9 -23 10 0 14 -16 14 -61 0 -47 4 -65 18
-75 15 -12 15 -13 1 -14 -20 0 -29 -20 -29 -66 0 -45 16 -74 39 -74 24 0 29
25 26 130 -2 47 -4 113 -4 148 l-1 63 -34 -3 c-27 -1 -35 -7 -39 -25z"/>
<path d="M645 1970 c-14 -28 -14 -31 5 -50 21 -21 19 -40 -4 -40 -7 0 -12 -10
-11 -22 1 -13 -1 -27 -5 -33 -5 -5 -9 -28 -10 -50 -4 -81 -12 -75 108 -74 59
1 97 4 84 6 -12 2 -27 13 -32 24 -6 10 -17 19 -25 19 -8 0 -15 7 -15 15 0 18
12 19 29 3 10 -11 12 -9 9 7 -2 15 3 21 25 23 15 2 27 -1 27 -7 0 -17 18 -13
38 9 18 20 52 19 52 -1 0 -14 28 -11 54 6 13 9 28 15 32 14 19 -3 34 2 34 11
0 16 -52 11 -72 -7 -19 -17 -21 -17 -50 0 -37 21 -48 21 -63 0 -10 -13 -16
-15 -26 -6 -8 6 -28 14 -45 17 -25 6 -31 11 -27 25 6 22 -16 39 -27 21 -5 -8
-9 -7 -13 5 -4 9 -3 14 1 12 4 -3 13 1 20 9 10 11 8 16 -13 30 -18 12 -22 20
-15 29 6 8 6 15 -2 23 -21 21 -47 13 -63 -18z"/>
<path d="M1120 1338 c0 -8 9 -27 20 -41 20 -25 20 -25 0 -20 -14 4 -20 0 -20
-10 0 -20 17 -31 23 -15 4 9 6 10 6 1 1 -6 -3 -14 -7 -17 -5 -3 -5 -34 0 -68
7 -46 15 -69 33 -85 13 -11 32 -44 41 -73 l17 -51 56 3 c69 4 74 17 29 84 -18
27 -40 61 -47 77 -8 15 -20 27 -27 27 -18 0 -44 46 -44 80 0 30 -15 41 -23 18
-2 -7 -2 -1 0 14 3 20 -4 35 -26 59 -20 21 -31 27 -31 17z"/>
<path d="M1290 939 c-25 -3 -38 -7 -30 -7 8 -1 36 -25 62 -53 39 -43 46 -55
37 -70 -7 -15 -6 -21 5 -25 8 -3 18 -15 21 -26 5 -15 13 -18 33 -13 15 3 37 7
50 10 12 2 27 7 32 10 11 7 13 48 4 92 -5 26 -9 29 -35 25 -15 -2 -34 -10 -40
-18 -6 -8 -19 -14 -28 -14 -17 0 -41 42 -41 71 0 22 -15 26 -70 18z"/>
</g>
</svg>
